<?xml version="1.0" encoding="UTF-8" standalone="no"?>
<!-- Created with Inkscape (http://www.inkscape.org/) -->

<svg
   xmlns:dc="http://purl.org/dc/elements/1.1/"
   xmlns:cc="http://creativecommons.org/ns#"
   xmlns:rdf="http://www.w3.org/1999/02/22-rdf-syntax-ns#"
   xmlns:svg="http://www.w3.org/2000/svg"
   xmlns="http://www.w3.org/2000/svg"
   xmlns:sodipodi="http://sodipodi.sourceforge.net/DTD/sodipodi-0.dtd"
   xmlns:inkscape="http://www.inkscape.org/namespaces/inkscape"
   width="942.4754mm"
   height="258.52225mm"
   viewBox="0 0 942.47539 258.52224"
   version="1.1"
   id="svg8"
   inkscape:version="0.92.5 (2060ec1f9f, 2020-04-08)"
   sodipodi:docname="logo.svg"
   inkscape:export-filename="/media/dev/projects/AAF/codecraft/resources/images/raster/logo.png"
   inkscape:export-xdpi="10.18"
   inkscape:export-ydpi="10.18">
  <defs
     id="defs2">
    <filter
       inkscape:collect="always"
       style="color-interpolation-filters:sRGB"
       id="filter946"
       x="-0.029176127"
       width="1.0583524"
       y="-0.13528012"
       height="1.2705601">
      <feGaussianBlur
         inkscape:collect="always"
         stdDeviation="11.468997"
         id="feGaussianBlur948" />
    </filter>
  </defs>
  <sodipodi:namedview
     id="base"
     pagecolor="#ffffff"
     bordercolor="#666666"
     borderopacity="1.0"
     inkscape:pageopacity="0.0"
     inkscape:pageshadow="2"
     inkscape:zoom="0.175"
     inkscape:cx="2197.1421"
     inkscape:cy="425.03474"
     inkscape:document-units="mm"
     inkscape:current-layer="g961"
     showgrid="false"
     showguides="true"
     inkscape:guide-bbox="true"
     inkscape:window-width="1378"
     inkscape:window-height="836"
     inkscape:window-x="0"
     inkscape:window-y="27"
     inkscape:window-maximized="1"
     fit-margin-top="0"
     fit-margin-left="0"
     fit-margin-right="0"
     fit-margin-bottom="0" />
  <metadata
     id="metadata5">
    <rdf:RDF>
      <cc:Work
         rdf:about="">
        <dc:format>image/svg+xml</dc:format>
        <dc:type
           rdf:resource="http://purl.org/dc/dcmitype/StillImage" />
        <dc:title></dc:title>
      </cc:Work>
    </rdf:RDF>
  </metadata>
  <g
     inkscape:label="Layer 1"
     inkscape:groupmode="layer"
     id="layer1"
     transform="translate(188.76856,-19.23886)">
    <flowRoot
       xml:space="preserve"
       id="flowRoot903"
       style="font-style:normal;font-variant:normal;font-weight:normal;font-stretch:normal;font-size:40px;line-height:1.25;font-family:'Fira Code';-inkscape-font-specification:'Fira Code';letter-spacing:0px;word-spacing:0px;fill:#000000;fill-opacity:1;stroke:none"
       transform="scale(0.26458333)"><flowRegion
         id="flowRegion905"
         style="font-style:normal;font-variant:normal;font-weight:normal;font-stretch:normal;font-family:'Fira Code';-inkscape-font-specification:'Fira Code'"><rect
           id="rect907"
           width="375.77673"
           height="430.32498"
           x="234.35539"
           y="346.72253"
           style="font-style:normal;font-variant:normal;font-weight:normal;font-stretch:normal;font-family:'Fira Code';-inkscape-font-specification:'Fira Code'" /></flowRegion><flowPara
         id="flowPara909" /></flowRoot>    <g
       id="g961"
       transform="translate(0,272.14287)">
      <rect
         ry="68.426865"
         y="-225.3784"
         x="-162.7869"
         height="203.47108"
         width="890.51196"
         id="rect851"
         style="opacity:1;fill:#ffffff;fill-opacity:1;stroke:none;stroke-width:0;stroke-linecap:round;stroke-linejoin:round;stroke-miterlimit:4;stroke-dasharray:none;stroke-opacity:1" />
      <g
         transform="matrix(3.1397476,0,0,3.1397476,-187.19956,-247.98697)"
         id="g974">
        <path
           transform="matrix(0.26458333,0,0,0.26458333,23.736066,18.119209)"
           d="m 68.828125,0 a 41.175742,41.175742 0 0 0 -41.175781,41.175781 41.175742,41.175742 0 0 0 41.175781,41.175781 41.175742,41.175742 0 0 0 1.939453,-0.04687 c 10.778899,4.348343 11.260432,12.709321 6.480469,21.783198 -4.94479,9.38676 -48.91937,-10.872729 -67.027344,9.63867 -18.1079772,20.51141 -7.2528193,32.13867 1.550781,32.13867 8.803597,0 2.583065,-14.98437 22.119141,-14.98437 19.536072,0 66.281505,51.42465 82.749995,22.90039 16.4685,-28.52427 0.11499,-56.50071 -10.66992,-60.984371 C 96.692621,88.939654 94.43711,77.036788 93.984375,73.771484 A 41.175742,41.175742 0 0 0 110.00391,41.175781 41.175742,41.175742 0 0 0 68.828125,0 Z"
           style="fill:#5f5f5f;fill-opacity:1;stroke:none;stroke-width:0;stroke-linecap:round;stroke-linejoin:round;stroke-miterlimit:4;stroke-dasharray:none;paint-order:markers fill stroke"
           id="path913"
           inkscape:connector-curvature="0" />
        <path
           d="m 49.681682,29.39493 a 8.3342276,8.3342276 0 0 1 -8.334228,8.334227 8.3342276,8.3342276 0 0 1 -8.334227,-8.334227 8.3342276,8.3342276 0 0 1 8.334227,-8.334228 8.3342276,8.3342276 0 0 1 8.334228,8.334228 z"
           style="fill:#9d9d9d;fill-opacity:1;stroke:none;stroke-width:0;stroke-linecap:round;stroke-linejoin:round;stroke-miterlimit:4;stroke-dasharray:none;paint-order:markers fill stroke"
           id="path913-6-1"
           inkscape:connector-curvature="0" />
        <path
           d="m 47.39385,29.721764 a 6.863481,6.863481 0 0 1 -6.863481,6.863481 6.863481,6.863481 0 0 1 -6.863481,-6.863481 6.863481,6.863481 0 0 1 6.863481,-6.863481 6.863481,6.863481 0 0 1 6.863481,6.863481 z"
           style="fill:#ffffff;fill-opacity:1;stroke:none;stroke-width:0;stroke-linecap:round;stroke-linejoin:round;stroke-miterlimit:4;stroke-dasharray:none;paint-order:markers fill stroke"
           id="path913-6"
           inkscape:connector-curvature="0" />
      </g>
      <flowRoot
         transform="matrix(2.9448407,0,0,2.9448407,715.72464,-4926.834)"
         style="font-style:normal;font-weight:normal;font-size:40px;line-height:1.25;font-family:sans-serif;letter-spacing:0px;word-spacing:0px;fill:#5f5f5f;fill-opacity:1;stroke:none"
         id="flowRoot824"
         xml:space="preserve"><flowRegion
           style="fill:#5f5f5f;fill-opacity:1"
           id="flowRegion826"><rect
             style="fill:#5f5f5f;fill-opacity:1"
             y="1607.8707"
             x="-234.35539"
             height="674.78192"
             width="1187.9393"
             id="rect828" /></flowRegion><flowPara
           style="font-style:normal;font-variant:normal;font-weight:bold;font-stretch:normal;font-family:'Fira Code';-inkscape-font-specification:'Fira Code Bold';fill:#5f5f5f;fill-opacity:1"
           id="flowPara830">codecraft</flowPara></flowRoot>      <rect
         ry="68.426865"
         y="-225.37842"
         x="-162.78687"
         height="203.47108"
         width="890.51196"
         id="rect851-6-7"
         style="opacity:1;fill:#ffffff;fill-opacity:0;stroke:#000000;stroke-width:7;stroke-linecap:round;stroke-linejoin:round;stroke-miterlimit:4;stroke-dasharray:none;stroke-opacity:0.8627451;filter:url(#filter946)" />
      <rect
         ry="68.426865"
         y="-225.37842"
         x="-162.7869"
         height="203.47108"
         width="890.51202"
         id="rect851-6"
         style="opacity:1;fill:#ffffff;fill-opacity:0;stroke:#ffffff;stroke-width:7;stroke-linecap:round;stroke-linejoin:round;stroke-miterlimit:4;stroke-dasharray:none;stroke-opacity:1" />
    </g>
  </g>
</svg>
